<mxfile host="65bd71144e">
    <diagram id="bzHFOhqaca0zNrRNMq3O" name="Page-1">
        <mxGraphModel dx="914" dy="629" grid="1" gridSize="10" guides="1" tooltips="1" connect="1" arrows="1" fold="1" page="1" pageScale="1" pageWidth="1100" pageHeight="850" background="none" math="0" shadow="0">
            <root>
                <mxCell id="0"/>
                <mxCell id="1" parent="0"/>
                <mxCell id="73" value="" style="shape=partialRectangle;whiteSpace=wrap;html=1;bottom=0;right=0;fillColor=none;strokeColor=#003366;strokeWidth=1;direction=north;" parent="1" vertex="1">
                    <mxGeometry x="90" y="200" width="171" height="234" as="geometry"/>
                </mxCell>
                <mxCell id="13" value="" style="endArrow=classic;html=1;strokeColor=#001933;" parent="1" edge="1">
                    <mxGeometry width="50" height="50" relative="1" as="geometry">
                        <mxPoint x="70" y="200" as="sourcePoint"/>
                        <mxPoint x="110" y="200" as="targetPoint"/>
                    </mxGeometry>
                </mxCell>
                <mxCell id="14" value="" style="endArrow=classic;html=1;labelBackgroundColor=#FFFFCC;fontColor=#001933;labelBorderColor=none;strokeColor=#003366;" parent="1" edge="1">
                    <mxGeometry width="50" height="50" relative="1" as="geometry">
                        <mxPoint x="70" y="310" as="sourcePoint"/>
                        <mxPoint x="110" y="309.5" as="targetPoint"/>
                    </mxGeometry>
                </mxCell>
                <mxCell id="15" value="" style="endArrow=classic;html=1;strokeColor=#003366;" parent="1" edge="1">
                    <mxGeometry width="50" height="50" relative="1" as="geometry">
                        <mxPoint x="830" y="200" as="sourcePoint"/>
                        <mxPoint x="870" y="200" as="targetPoint"/>
                    </mxGeometry>
                </mxCell>
                <mxCell id="41" value="" style="ellipse;whiteSpace=wrap;html=1;aspect=fixed;fillColor=#b1ddf0;strokeColor=#10739e;" parent="1" vertex="1">
                    <mxGeometry x="250" y="410" width="50" height="50" as="geometry"/>
                </mxCell>
                <mxCell id="16" value="" style="endArrow=classic;html=1;strokeColor=#003366;" parent="1" edge="1">
                    <mxGeometry width="50" height="50" relative="1" as="geometry">
                        <mxPoint x="830" y="309.5" as="sourcePoint"/>
                        <mxPoint x="870" y="310" as="targetPoint"/>
                    </mxGeometry>
                </mxCell>
                <mxCell id="17" value="" style="endArrow=classic;html=1;" parent="1" edge="1">
                    <mxGeometry width="50" height="50" relative="1" as="geometry">
                        <mxPoint x="175" y="200" as="sourcePoint"/>
                        <mxPoint x="230" y="200" as="targetPoint"/>
                    </mxGeometry>
                </mxCell>
                <mxCell id="18" value="" style="endArrow=classic;html=1;strokeColor=#003366;" parent="1" edge="1">
                    <mxGeometry width="50" height="50" relative="1" as="geometry">
                        <mxPoint x="175" y="309.5" as="sourcePoint"/>
                        <mxPoint x="230" y="310" as="targetPoint"/>
                    </mxGeometry>
                </mxCell>
                <mxCell id="19" value="" style="endArrow=classic;html=1;strokeColor=#003366;exitX=1;exitY=0.5;exitDx=0;exitDy=0;" parent="1" source="8" edge="1">
                    <mxGeometry width="50" height="50" relative="1" as="geometry">
                        <mxPoint x="700" y="200" as="sourcePoint"/>
                        <mxPoint x="750" y="200" as="targetPoint"/>
                    </mxGeometry>
                </mxCell>
                <mxCell id="20" value="" style="endArrow=classic;html=1;strokeColor=#003366;exitX=1;exitY=0.5;exitDx=0;exitDy=0;" parent="1" source="9" edge="1">
                    <mxGeometry width="50" height="50" relative="1" as="geometry">
                        <mxPoint x="700" y="310" as="sourcePoint"/>
                        <mxPoint x="750" y="310" as="targetPoint"/>
                    </mxGeometry>
                </mxCell>
                <mxCell id="23" value="" style="endArrow=classic;html=1;entryX=0.5;entryY=1;entryDx=0;entryDy=0;exitX=0.5;exitY=0;exitDx=0;exitDy=0;strokeColor=#003366;" parent="1" source="9" target="8" edge="1">
                    <mxGeometry width="50" height="50" relative="1" as="geometry">
                        <mxPoint x="505" y="400" as="sourcePoint"/>
                        <mxPoint x="555" y="350" as="targetPoint"/>
                    </mxGeometry>
                </mxCell>
                <mxCell id="25" value="" style="endArrow=classic;html=1;entryX=0.5;entryY=1;entryDx=0;entryDy=0;strokeColor=#003366;exitX=0.5;exitY=0;exitDx=0;exitDy=0;" parent="1" source="58" target="9" edge="1">
                    <mxGeometry width="50" height="50" relative="1" as="geometry">
                        <mxPoint x="658" y="480" as="sourcePoint"/>
                        <mxPoint x="665" y="340" as="targetPoint"/>
                    </mxGeometry>
                </mxCell>
                <mxCell id="26" value="" style="endArrow=classic;html=1;entryX=0.5;entryY=1;entryDx=0;entryDy=0;exitX=0.5;exitY=0;exitDx=0;exitDy=0;strokeColor=#003366;" parent="1" edge="1">
                    <mxGeometry width="50" height="50" relative="1" as="geometry">
                        <mxPoint x="275.75" y="280" as="sourcePoint"/>
                        <mxPoint x="275.75" y="230" as="targetPoint"/>
                    </mxGeometry>
                </mxCell>
                <mxCell id="27" value="" style="endArrow=classic;html=1;entryX=0.5;entryY=1;entryDx=0;entryDy=0;strokeColor=#003366;exitX=0.5;exitY=0;exitDx=0;exitDy=0;" parent="1" source="41" target="7" edge="1">
                    <mxGeometry width="50" height="50" relative="1" as="geometry">
                        <mxPoint x="276" y="480" as="sourcePoint"/>
                        <mxPoint x="275.75" y="340" as="targetPoint"/>
                    </mxGeometry>
                </mxCell>
                <mxCell id="31" value="DEMUX" style="shape=trapezoid;perimeter=trapezoidPerimeter;whiteSpace=wrap;html=1;fixedSize=1;direction=north;fontColor=#001933;strokeColor=#003366;fillColor=#99CCFF;" parent="1" vertex="1">
                    <mxGeometry x="500" y="130" width="60" height="240" as="geometry"/>
                </mxCell>
                <mxCell id="47" value="" style="edgeStyle=none;html=1;labelBackgroundColor=#FFFFCC;labelBorderColor=none;strokeColor=#003366;fontColor=#001933;" parent="1" source="4" target="6" edge="1">
                    <mxGeometry relative="1" as="geometry"/>
                </mxCell>
                <mxCell id="4" value="Video&lt;br&gt;Encoder" style="rounded=1;whiteSpace=wrap;html=1;fillColor=#F8CFA5;fontColor=#001933;labelBorderColor=none;strokeColor=#003366;" parent="1" vertex="1">
                    <mxGeometry x="110" y="170" width="75" height="60" as="geometry"/>
                </mxCell>
                <mxCell id="6" value="PES&lt;br&gt;Packetizer" style="rounded=1;whiteSpace=wrap;html=1;fillColor=#EECCE6;fontColor=#001933;strokeColor=#003366;" parent="1" vertex="1">
                    <mxGeometry x="230" y="170" width="90" height="60" as="geometry"/>
                </mxCell>
                <mxCell id="33" value="" style="endArrow=classic;html=1;entryX=0;entryY=0.5;entryDx=0;entryDy=0;strokeColor=#003366;" parent="1" target="8" edge="1">
                    <mxGeometry width="50" height="50" relative="1" as="geometry">
                        <mxPoint x="560" y="200" as="sourcePoint"/>
                        <mxPoint x="610" y="150" as="targetPoint"/>
                    </mxGeometry>
                </mxCell>
                <mxCell id="34" value="" style="endArrow=classic;html=1;entryX=0;entryY=0.5;entryDx=0;entryDy=0;strokeColor=#003366;" parent="1" edge="1">
                    <mxGeometry width="50" height="50" relative="1" as="geometry">
                        <mxPoint x="560" y="309.5" as="sourcePoint"/>
                        <mxPoint x="610" y="309.5" as="targetPoint"/>
                    </mxGeometry>
                </mxCell>
                <mxCell id="30" value="MUX" style="shape=trapezoid;perimeter=trapezoidPerimeter;whiteSpace=wrap;html=1;fixedSize=1;direction=south;fillColor=#FF99CC;strokeColor=#003366;fontColor=#001933;" parent="1" vertex="1">
                    <mxGeometry x="370" y="130" width="60" height="240" as="geometry"/>
                </mxCell>
                <mxCell id="38" value="" style="endArrow=classic;html=1;entryX=0;entryY=0.5;entryDx=0;entryDy=0;strokeColor=#003366;" parent="1" edge="1">
                    <mxGeometry width="50" height="50" relative="1" as="geometry">
                        <mxPoint x="320" y="200" as="sourcePoint"/>
                        <mxPoint x="370" y="200" as="targetPoint"/>
                    </mxGeometry>
                </mxCell>
                <mxCell id="39" value="" style="endArrow=classic;html=1;entryX=0;entryY=0.5;entryDx=0;entryDy=0;strokeColor=#003366;" parent="1" edge="1">
                    <mxGeometry width="50" height="50" relative="1" as="geometry">
                        <mxPoint x="320" y="309.5" as="sourcePoint"/>
                        <mxPoint x="370" y="309.5" as="targetPoint"/>
                    </mxGeometry>
                </mxCell>
                <mxCell id="40" value="TS" style="shape=flexArrow;endArrow=classic;html=1;entryX=0.5;entryY=0;entryDx=0;entryDy=0;width=25;strokeColor=#003366;fontColor=#001933;labelBackgroundColor=none;fillColor=#FFFF99;" parent="1" target="31" edge="1">
                    <mxGeometry width="50" height="50" relative="1" as="geometry">
                        <mxPoint x="430" y="250" as="sourcePoint"/>
                        <mxPoint x="480" y="200" as="targetPoint"/>
                    </mxGeometry>
                </mxCell>
                <UserObject label="PTS" placeholders="1" name="Variable" id="44">
                    <mxCell style="text;html=1;strokeColor=none;fillColor=none;align=center;verticalAlign=middle;whiteSpace=wrap;overflow=hidden;fontColor=#000000;" parent="1" vertex="1">
                        <mxGeometry x="240" y="350" width="30" height="40" as="geometry"/>
                    </mxCell>
                </UserObject>
                <UserObject label="(27MHz)&amp;nbsp; STC" placeholders="1" name="Variable" id="45">
                    <mxCell style="text;html=1;strokeColor=none;fillColor=none;align=center;verticalAlign=middle;whiteSpace=wrap;overflow=hidden;fontColor=#000000;" parent="1" vertex="1">
                        <mxGeometry x="230" y="470" width="90" height="20" as="geometry"/>
                    </mxCell>
                </UserObject>
                <UserObject label="PCR" placeholders="1" name="Variable" id="46">
                    <mxCell style="text;html=1;strokeColor=none;fillColor=none;align=center;verticalAlign=middle;whiteSpace=wrap;overflow=hidden;fontColor=#000000;" parent="1" vertex="1">
                        <mxGeometry x="520" y="380" width="60" height="20" as="geometry"/>
                    </mxCell>
                </UserObject>
                <mxCell id="8" value="PES&lt;br&gt;Depacketizer" style="rounded=1;whiteSpace=wrap;html=1;fillColor=#B8B6FA;strokeColor=#003366;fontColor=#001933;" parent="1" vertex="1">
                    <mxGeometry x="610" y="170" width="95" height="60" as="geometry"/>
                </mxCell>
                <mxCell id="10" value="Video&lt;br&gt;Decoder" style="rounded=1;whiteSpace=wrap;html=1;fontColor=#001933;fillColor=#82D9D9;strokeColor=#003366;" parent="1" vertex="1">
                    <mxGeometry x="750" y="170" width="80" height="60" as="geometry"/>
                </mxCell>
                <mxCell id="9" value="PES&lt;br&gt;Depacketizer" style="rounded=1;whiteSpace=wrap;html=1;strokeColor=#003366;fontColor=#001933;fillColor=#B8B6FA;" parent="1" vertex="1">
                    <mxGeometry x="610" y="280" width="95" height="60" as="geometry"/>
                </mxCell>
                <mxCell id="11" value="Audio &lt;br&gt;Decoder" style="rounded=1;whiteSpace=wrap;html=1;strokeColor=#003366;fontColor=#001933;fillColor=#82D9D9;" parent="1" vertex="1">
                    <mxGeometry x="750" y="280" width="80" height="60" as="geometry"/>
                </mxCell>
                <mxCell id="5" value="Audio &lt;br&gt;Encoder" style="rounded=1;whiteSpace=wrap;html=1;strokeColor=#003366;fontColor=#001933;fillColor=#F8CFA5;" parent="1" vertex="1">
                    <mxGeometry x="110" y="280" width="75" height="60" as="geometry"/>
                </mxCell>
                <mxCell id="7" value="PES&lt;br&gt;Packetizer" style="rounded=1;whiteSpace=wrap;html=1;strokeColor=#003366;fontColor=#001933;fillColor=#EECCE6;" parent="1" vertex="1">
                    <mxGeometry x="230" y="280" width="90" height="60" as="geometry"/>
                </mxCell>
                <mxCell id="58" value="" style="ellipse;whiteSpace=wrap;html=1;aspect=fixed;fillColor=#b1ddf0;strokeColor=#10739e;" parent="1" vertex="1">
                    <mxGeometry x="632.5" y="410" width="50" height="50" as="geometry"/>
                </mxCell>
                <mxCell id="59" value="" style="endArrow=classic;html=1;labelBackgroundColor=none;labelBorderColor=none;strokeColor=#003366;fontColor=#001933;" parent="1" edge="1">
                    <mxGeometry width="50" height="50" relative="1" as="geometry">
                        <mxPoint x="658.5" y="436" as="sourcePoint"/>
                        <mxPoint x="648.5" y="416" as="targetPoint"/>
                    </mxGeometry>
                </mxCell>
                <mxCell id="60" value="" style="endArrow=classic;html=1;labelBackgroundColor=none;labelBorderColor=none;strokeColor=#003366;fontColor=#001933;" parent="1" edge="1">
                    <mxGeometry width="50" height="50" relative="1" as="geometry">
                        <mxPoint x="658.5" y="436" as="sourcePoint"/>
                        <mxPoint x="678.5" y="446" as="targetPoint"/>
                    </mxGeometry>
                </mxCell>
                <UserObject label="PTS" placeholders="1" name="Variable" id="61">
                    <mxCell style="text;html=1;strokeColor=none;fillColor=none;align=center;verticalAlign=middle;whiteSpace=wrap;overflow=hidden;fontColor=#000000;" parent="1" vertex="1">
                        <mxGeometry x="660" y="360" width="40" height="20" as="geometry"/>
                    </mxCell>
                </UserObject>
                <UserObject label="PCR" placeholders="1" name="Variable" id="62">
                    <mxCell style="text;html=1;strokeColor=none;fillColor=none;align=center;verticalAlign=middle;whiteSpace=wrap;overflow=hidden;fontColor=#000000;" parent="1" vertex="1">
                        <mxGeometry x="360" y="380" width="40" height="20" as="geometry"/>
                    </mxCell>
                </UserObject>
                <UserObject label="(27MHz) STC" placeholders="1" name="Variable" id="63">
                    <mxCell style="text;html=1;strokeColor=none;fillColor=none;align=center;verticalAlign=middle;whiteSpace=wrap;overflow=hidden;fontColor=#000000;" parent="1" vertex="1">
                        <mxGeometry x="612.5" y="470" width="90" height="20" as="geometry"/>
                    </mxCell>
                </UserObject>
                <UserObject label="PTS&lt;br&gt;DTS" placeholders="1" name="Variable" id="64">
                    <mxCell style="text;html=1;strokeColor=none;fillColor=none;align=center;verticalAlign=middle;whiteSpace=wrap;overflow=hidden;fontColor=#000000;" parent="1" vertex="1">
                        <mxGeometry x="240" y="240" width="30" height="40" as="geometry"/>
                    </mxCell>
                </UserObject>
                <UserObject label="PTS&lt;br&gt;DTS" placeholders="1" name="Variable" id="65">
                    <mxCell style="text;html=1;strokeColor=none;fillColor=none;align=center;verticalAlign=middle;whiteSpace=wrap;overflow=hidden;fontColor=#000000;" parent="1" vertex="1">
                        <mxGeometry x="660" y="240" width="30" height="40" as="geometry"/>
                    </mxCell>
                </UserObject>
                <mxCell id="66" value="" style="edgeStyle=segmentEdgeStyle;endArrow=classic;html=1;curved=0;rounded=0;endSize=8;startSize=8;exitX=1;exitY=0.5;exitDx=0;exitDy=0;strokeColor=#003366;entryX=1;entryY=0.5;entryDx=0;entryDy=0;" parent="1" source="41" target="30" edge="1">
                    <mxGeometry width="50" height="50" relative="1" as="geometry">
                        <mxPoint x="350" y="440" as="sourcePoint"/>
                        <mxPoint x="400" y="390" as="targetPoint"/>
                    </mxGeometry>
                </mxCell>
                <mxCell id="67" value="" style="edgeStyle=segmentEdgeStyle;endArrow=classic;html=1;curved=0;rounded=0;endSize=8;startSize=8;exitX=0;exitY=0.5;exitDx=0;exitDy=0;strokeColor=#003366;entryX=1;entryY=0.5;entryDx=0;entryDy=0;" parent="1" source="58" edge="1">
                    <mxGeometry width="50" height="50" relative="1" as="geometry">
                        <mxPoint x="429.79999999999995" y="441.25" as="sourcePoint"/>
                        <mxPoint x="530" y="360" as="targetPoint"/>
                    </mxGeometry>
                </mxCell>
                <mxCell id="56" value="" style="endArrow=classic;html=1;labelBackgroundColor=none;labelBorderColor=none;strokeColor=#003366;fontColor=#001933;" parent="1" edge="1">
                    <mxGeometry width="50" height="50" relative="1" as="geometry">
                        <mxPoint x="276" y="436" as="sourcePoint"/>
                        <mxPoint x="266" y="416" as="targetPoint"/>
                    </mxGeometry>
                </mxCell>
                <mxCell id="57" value="" style="endArrow=classic;html=1;labelBackgroundColor=none;labelBorderColor=none;strokeColor=#003366;fontColor=#001933;" parent="1" edge="1">
                    <mxGeometry width="50" height="50" relative="1" as="geometry">
                        <mxPoint x="276" y="436" as="sourcePoint"/>
                        <mxPoint x="296" y="446" as="targetPoint"/>
                    </mxGeometry>
                </mxCell>
                <mxCell id="75" value="" style="shape=partialRectangle;whiteSpace=wrap;html=1;bottom=0;right=0;fillColor=none;strokeColor=#003366;strokeWidth=1;direction=west;" parent="1" vertex="1">
                    <mxGeometry x="682.5" y="200" width="167.5" height="234" as="geometry"/>
                </mxCell>
                <mxCell id="76" value="&lt;font color=&quot;#000000&quot;&gt;ES&lt;/font&gt;" style="text;html=1;align=center;verticalAlign=middle;resizable=0;points=[];autosize=1;strokeColor=none;fillColor=none;labelPosition=center;verticalLabelPosition=middle;" vertex="1" parent="1">
                    <mxGeometry x="185" y="177" width="40" height="30" as="geometry"/>
                </mxCell>
                <mxCell id="77" value="&lt;font color=&quot;#000000&quot;&gt;ES&lt;/font&gt;" style="text;html=1;align=center;verticalAlign=middle;resizable=0;points=[];autosize=1;strokeColor=none;fillColor=none;labelPosition=center;verticalLabelPosition=middle;" vertex="1" parent="1">
                    <mxGeometry x="185" y="287" width="40" height="30" as="geometry"/>
                </mxCell>
                <mxCell id="78" value="&lt;font color=&quot;#000000&quot;&gt;PES&lt;/font&gt;" style="text;html=1;align=center;verticalAlign=middle;resizable=0;points=[];autosize=1;strokeColor=none;fillColor=none;labelPosition=center;verticalLabelPosition=middle;" vertex="1" parent="1">
                    <mxGeometry x="315" y="177" width="50" height="30" as="geometry"/>
                </mxCell>
                <mxCell id="79" value="&lt;font color=&quot;#000000&quot;&gt;PES&lt;/font&gt;" style="text;html=1;align=center;verticalAlign=middle;resizable=0;points=[];autosize=1;strokeColor=none;fillColor=none;labelPosition=center;verticalLabelPosition=middle;" vertex="1" parent="1">
                    <mxGeometry x="315" y="287" width="50" height="30" as="geometry"/>
                </mxCell>
                <mxCell id="80" value="&lt;font color=&quot;#000000&quot;&gt;PES&lt;/font&gt;" style="text;html=1;align=center;verticalAlign=middle;resizable=0;points=[];autosize=1;strokeColor=none;fillColor=none;labelPosition=center;verticalLabelPosition=middle;" vertex="1" parent="1">
                    <mxGeometry x="558" y="177" width="50" height="30" as="geometry"/>
                </mxCell>
                <mxCell id="81" value="&lt;font color=&quot;#000000&quot;&gt;PES&lt;/font&gt;" style="text;html=1;align=center;verticalAlign=middle;resizable=0;points=[];autosize=1;strokeColor=none;fillColor=none;labelPosition=center;verticalLabelPosition=middle;" vertex="1" parent="1">
                    <mxGeometry x="558" y="287" width="50" height="30" as="geometry"/>
                </mxCell>
                <mxCell id="82" value="&lt;font color=&quot;#000000&quot;&gt;ES&lt;/font&gt;" style="text;html=1;align=center;verticalAlign=middle;resizable=0;points=[];autosize=1;strokeColor=none;fillColor=none;labelPosition=center;verticalLabelPosition=middle;" vertex="1" parent="1">
                    <mxGeometry x="705" y="177" width="40" height="30" as="geometry"/>
                </mxCell>
                <mxCell id="83" value="&lt;font color=&quot;#000000&quot;&gt;ES&lt;/font&gt;" style="text;html=1;align=center;verticalAlign=middle;resizable=0;points=[];autosize=1;strokeColor=none;fillColor=none;labelPosition=center;verticalLabelPosition=middle;" vertex="1" parent="1">
                    <mxGeometry x="705" y="287" width="40" height="30" as="geometry"/>
                </mxCell>
            </root>
        </mxGraphModel>
    </diagram>
</mxfile>